<?xml version="1.0" encoding="UTF-8"?><svg id="Layer_1" xmlns="http://www.w3.org/2000/svg" xmlns:xlink="http://www.w3.org/1999/xlink" viewBox="0 0 450.89 248.29"><defs><style>.cls-1{letter-spacing:.1em;}.cls-2{fill:#00aeef;font-family:Montserrat-Bold, Montserrat;font-size:36.42px;letter-spacing:.3em;}.cls-3{fill:url(#linear-gradient);}.cls-4{letter-spacing:.09em;}.cls-5{letter-spacing:.08em;}.cls-6{fill:#024059;font-family:Norwester-Regular, Norwester;font-size:90.23px;}.cls-7{fill:url(#linear-gradient-8);}.cls-8{fill:url(#linear-gradient-9);}.cls-9{fill:url(#linear-gradient-3);}.cls-10{fill:url(#linear-gradient-4);}.cls-11{fill:url(#linear-gradient-2);}.cls-12{fill:url(#linear-gradient-6);}.cls-13{fill:url(#linear-gradient-7);}.cls-14{fill:url(#linear-gradient-5);}</style><linearGradient id="linear-gradient" x1="165.96" y1="24.45" x2="293.24" y2="-19.52" gradientTransform="matrix(1, 0, 0, 1, 0, 0)" gradientUnits="userSpaceOnUse"><stop offset="0" stop-color="#2e3192"/><stop offset=".23" stop-color="#00aeef"/><stop offset=".41" stop-color="#00aeef"/><stop offset=".58" stop-color="#2e3192"/></linearGradient><linearGradient id="linear-gradient-2" x1="260.46" y1="59.77" x2="263.16" y2="-41.28" gradientTransform="matrix(1, 0, 0, 1, 0, 0)" gradientUnits="userSpaceOnUse"><stop offset=".25" stop-color="#00aeef"/><stop offset=".58" stop-color="#2e3192"/></linearGradient><linearGradient id="linear-gradient-3" x1="158.14" y1="1.19" x2="289.78" y2="84.18" gradientTransform="matrix(1, 0, 0, 1, 0, 0)" gradientUnits="userSpaceOnUse"><stop offset=".2" stop-color="#00aeef"/><stop offset=".31" stop-color="#00aeef"/><stop offset=".58" stop-color="#2e3192"/></linearGradient><linearGradient id="linear-gradient-4" x1="-181.83" y1="583.24" x2="-202.55" y2="548.99" gradientTransform="translate(770.64 286.13) rotate(96.06)" gradientUnits="userSpaceOnUse"><stop offset=".35" stop-color="#00aeef"/><stop offset="1" stop-color="#2e3192"/></linearGradient><linearGradient id="linear-gradient-5" x1="-202.18" y1="437.86" x2="-158.98" y2="473.26" gradientTransform="translate(697.09 178.89) rotate(83.28)" xlink:href="#linear-gradient-4"/><linearGradient id="linear-gradient-6" x1="232.79" y1="79.71" x2="298.11" y2="57.51" gradientTransform="translate(494.48 92.41) rotate(-159.88) scale(1 -1)" xlink:href="#linear-gradient-2"/><linearGradient id="linear-gradient-7" x1="191.45" y1="21.71" x2="214.71" y2="-19.86" gradientTransform="translate(59.75 -18.56) rotate(18.21)" xlink:href="#linear-gradient-2"/><linearGradient id="linear-gradient-8" x1="242.37" y1="29.49" x2="304.53" y2=".66" xlink:href="#linear-gradient-2"/><linearGradient id="linear-gradient-9" x1="221.3" y1="278.46" x2="253.58" y2="220.77" gradientTransform="translate(-49.77 231.27) rotate(-92.96)" xlink:href="#linear-gradient-2"/></defs><g><path class="cls-3" d="M224.34,.02c2.27-.17,4.52,1.07,5.53,3.26,1.3,2.82,.07,6.16-2.76,7.47l-44.09,12.25c-2.82,1.3-6.17,.07-7.47-2.76-1.3-2.82-.07-6.16,2.76-7.47L222.4,.52c.63-.29,1.29-.45,1.94-.5Z"/><path class="cls-11" d="M266.8,25.47c-.45-2.24-2.23-4.07-4.62-4.45-3.07-.5-5.96,1.58-6.46,4.65l-.14,10.57c-.5,3.07,1.58,5.96,4.65,6.46,3.07,.5,5.96-1.58,6.46-4.65l.14-10.57c.11-.68,.09-1.36-.03-2Z"/><path class="cls-9" d="M176.14,22.7c-1.73-1.49-2.44-3.95-1.6-6.21,1.08-2.92,4.31-4.41,7.23-3.33l27.45,10.13c2.92,1.08,4.41,4.31,3.33,7.23-1.08,2.92-4.31,4.41-7.23,3.33l-27.45-10.13c-.65-.24-1.23-.59-1.73-1.02Z"/><path class="cls-10" d="M202.84,38.37c1.13-10.63,9.66-19.08,20.28-20.11,3.34-.32,6.32,2.13,6.64,5.47,.33,3.34-2.13,6.32-5.47,6.64-4.9,.47-8.83,4.38-9.35,9.28-.42,3.96,1.41,7.76,4.77,9.9,2.83,1.81,3.66,5.57,1.86,8.4-1.81,2.83-5.57,3.67-8.4,1.86-7.28-4.64-11.24-12.86-10.33-21.44Z"/><path class="cls-14" d="M220.76,25.1c-.04-.31-.05-.63-.04-.95,.12-3.39,2.97-6.03,6.36-5.91,11.3,.42,20.46,8.88,21.78,20.12,.88,7.5-2,14.94-7.71,19.9-2.56,2.22-6.44,1.95-8.66-.61-2.22-2.56-1.95-6.44,.61-8.66,2.64-2.29,3.97-5.73,3.56-9.19-.6-5.11-4.92-9.1-10.04-9.28-3.07-.11-5.52-2.45-5.87-5.41Z"/><path class="cls-12" d="M247.94,94.15c2.14,.78,4.64,.21,6.21-1.62,2.02-2.36,1.75-5.91-.61-7.93l-22.21-19.05c-2.36-2.02-5.91-1.75-7.93,.61-2.02,2.36-1.75,5.91,.61,7.93l22.21,19.05c.53,.45,1.11,.79,1.73,1.01Z"/><path class="cls-13" d="M231.42,71.58c.98-2.06,.64-4.6-1.04-6.33-2.16-2.23-5.72-2.29-7.96-.13l-21.01,20.36c-2.23,2.16-2.29,5.73-.13,7.96,2.16,2.23,5.72,2.29,7.96,.13l21.01-20.36c.5-.48,.89-1.03,1.17-1.63Z"/><path class="cls-7" d="M272.69,22.7c1.73-1.49,2.44-3.95,1.6-6.21-1.08-2.92-4.31-4.41-7.23-3.33l-27.45,10.13c-2.92,1.08-4.41,4.31-3.33,7.23,1.08,2.92,4.31,4.41,7.23,3.33l27.45-10.13c.65-.24,1.23-.59,1.73-1.02Z"/><path class="cls-8" d="M227.4,.02c-2.27-.17-4.52,1.07-5.53,3.26-1.3,2.82-.07,6.16,2.76,7.47l44.09,12.25c2.82,1.3,6.17,.07,7.47-2.76,1.3-2.82,.07-6.16-2.76-7.47L229.34,.52c-.63-.29-1.29-.45-1.94-.5Z"/></g><text class="cls-6" transform="translate(0 186.66)"><tspan class="cls-4" x="0" y="0">C</tspan><tspan class="cls-5" x="53.33" y="0">A</tspan><tspan class="cls-1" x="113.42" y="0">MPBE</tspan><tspan class="cls-4" x="345.32" y="0">L</tspan><tspan class="cls-1" x="397.65" y="0">L</tspan></text><text class="cls-2" transform="translate(132.86 238.6)"><tspan x="0" y="0">LEARN</tspan></text></svg>